<svg xmlns="http://www.w3.org/2000/svg" width="240" height="240" viewBox="-120.5 -120.5 240 240"><path d="M0 115v-230m0-1l-2 4h4zM-115 0h230m1 0l-4 2v-4z" stroke="#000" stroke-width=".5"/><circle r="1" transform="scale(100 -100)" fill="none" stroke="#000" stroke-width=".01" stroke-miterlimit="1.5"/><path d="M15 0a15 15 0 0 0-2.01-7.5" fill="none" stroke="#000" stroke-miterlimit="1.5"/><text y="-3" x="20" font-size="12.5" font-style="italic" font-family="serif">α</text><text y="-1.922" x="100.797" font-size="12.5" font-family="serif">1</text><text y="-46.46" x="-4.909" font-size="12.5" text-anchor="end" font-family="serif">sin <tspan font-style="italic">α</tspan></text><text x="94.595" y="14.932" font-size="12.5" text-anchor="end" font-family="serif">cos <tspan font-style="italic">α</tspan></text><path transform="scale(99.79242 -98.92136)" fill="none" stroke="#000" stroke-width=".01" stroke-miterlimit="1.5" d="M.866.5L0 0h.866z"/><path transform="scale(82.14779 -140.62867)" fill="none" stroke="#000" stroke-width=".005" stroke-miterlimit="1.5" d="M.866 0v.5L0 0z"/><path d="M-2.708-49.397h88.845M86.329.208v4.7" fill="none" stroke="#000" stroke-width=".5"/><path transform="matrix(0 99.16966 -100 0 50.217 -86.302)" fill="none" stroke="#000" stroke-width=".005" stroke-miterlimit="1.5" d="M.866 0v.5L0 0z"/></svg>