<svg xmlns="http://www.w3.org/2000/svg" version="1.0" width="611.8" height="618.2" viewBox="0 0 611.8 618.2" overflow="visible"><path d="M568.8 407.5c-52.7 145.1-213.2 219.9-358.3 167.1C65.3 521.8-9.4 361.3 43.4 216.3 96.2 71.2 256.6-3.6 401.7 49.2c145 52.7 219.8 213.2 167.1 358.3z" fill="#fff" stroke="#1f1f1f" stroke-width="8"/><path fill="#fff" stroke="#0ff" stroke-width="4" d="M50.9 430.9l508.8-237.3"/><path fill="#fff" stroke="red" stroke-width="4" d="M305 312.3l263.7 96"/><circle cx="305" cy="312.3" r="5.2" fill="#fff" stroke="#f0f" stroke-width="4"/><path d="M119.489 362.669l9.8-4.7c2.8-1.3 5.2-1.5 7.5-.7s4.1 2.6 5.2 5.3c.9 1.9 1.4 3.9 1.5 5.7.1 2-.1 3.9-.6 5.2-.5 1.5-1.4 3-2.8 4.5-1.3 1.5-2.9 2.6-4.6 3.4l-11.2 5.1-.2-1.2 1.2-.6c.7-.3 1.1-.7 1.3-1 .2-.4.2-.9.1-1.5l-3.4-19c0-.1-.1-.3-.1-.4-.1-.3-.4-.5-.7-.5-.3 0-.9.1-1.5.4l-1.7.8v-.8h.2zm15.1 18.1c1.4-.7 2.6-1.5 3.4-2.6.9-1 1.4-2.4 1.8-3.9.4-1.5.3-3.3 0-5.2-.5-2.7-1-4.8-1.9-6.6-1-2.3-2.5-3.6-4.2-4-1.2-.3-2.9.1-4.8 1-1.2.6-1.9.9-2.1 1.2-.2.3-.2.8-.1 1.5l3.4 19c0 .3.1.5.2.7.1.3.3.4.6.5.3.1.6 0 1-.2l2.7-1.4z" fill="#0ff"/><path d="M400.3 314.5l10.5 3.9c2.6.9 4.3 2.2 5.1 3.6.8 1.4 1 2.9.4 4.6-.5 1.2-1.1 2.2-2.2 2.7-.9.6-2.3.9-3.9.9-1.1 0-2.6-.3-4.6-.8 1 .8 1.7 1.4 2 2.2.4.7.5 1.5.5 2.3 0 .7-.5 2.1-1.3 4.3-.5 1.3-.7 2.2-.7 2.6 0 .4.2.6.6.8.8.3 1.9-.4 3.3-2l.8.6c-2.1 2.5-4.1 3.3-5.9 2.5-.9-.4-1.5-.9-1.9-1.8-.4-.8-.3-1.9.2-3.2.3-.7.6-1.4 1-2.2.6-1 .9-1.7 1-2.1.5-1.1.5-2.2.1-2.8-.4-.8-1.3-1.3-2.6-1.9l-2.3-.9-5.6 8c-.1.1-.1.2-.1.3-.1.3-.1.6.1.8.2.3.6.6 1 .8l2.4.8-.7 1-10.4-3.9.7-1 1.9.7c.9.3 1.4.1 2-.6l11.4-16.2c.1-.1.1-.2.2-.3.1-.3.1-.6-.2-.8-.3-.3-.6-.5-1.1-.7l-2.3-.8.6-1.4zm1 12.1l3.1 1.1c1.7.6 3.1.8 4.3.8 1.1-.1 2.1-.5 2.7-1 .9-.9 1.7-1.9 2.2-3.1.4-1.1.4-2.1-.2-3-.6-.9-1.7-1.6-3.5-2.3-1.1-.4-1.9-.6-2.3-.6-.4.1-.8.3-1 .8l-5.3 7.3z" fill="red"/><path d="M518.833 70.821l2.3-.8 1 .5-5.1 7.3-.9-.5c.8-1.7 1.2-3.1 1.3-4.2.2-1.5.1-2.8-.5-4-.6-1.1-1.4-1.9-2.6-2.5-1.5-.7-3.3-.8-5-.2-1.9.6-4 2-5.9 4.3-1.8 2-3.1 4-4.2 6-.9 2.2-1.2 4.1-.7 5.6.6 1.7 1.8 2.9 3.6 3.7 1.6.8 3.3.9 4.8.5 1.8-.4 3.5-1.4 5-3.1l.8.9c-1.8 1.7-3.5 2.8-5.1 3.4-2.3.7-4.5.5-6.7-.6-2.6-1.1-4.3-3-5.1-5.3-.9-2.5-.9-4.8.4-7.5 1.1-2.5 2.8-4.5 4.9-6.1 2.3-1.8 4.6-2.8 6.8-3.2 2.4-.4 4.5-.1 6.5.9 1 .5 1.9 1 2.6 1.8.7.6 1.3 1.8 1.8 3.1z" fill="#1f1f1f"/><path d="M568.8 407.5c-52.7 145.1-213.2 219.9-358.3 167.1C65.3 521.8-9.4 361.3 43.4 216.3 96.2 71.2 256.6-3.6 401.7 49.2c145 52.7 219.8 213.2 167.1 358.3z" fill="none" stroke="#1f1f1f" stroke-width="8"/><path style="text-align:center;line-height:125%;-inkscape-font-specification:SkolaSerifIt Oblique" d="M290.2 283.49c-2.646-.267-4.979.115-6.999 1.147a12.418 12.418 0 0 0-4.878 4.423c-1.232 1.917-1.99 4.07-2.272 6.459-.306 2.637.154 4.893 1.38 6.767 1.227 1.873 3.288 3.006 6.183 3.398 2.637.266 4.965-.117 6.986-1.148a12.46 12.46 0 0 0 4.884-4.422c1.236-1.917 1.996-4.07 2.28-6.459.304-2.638-.16-4.894-1.393-6.768-1.232-1.874-3.289-3.007-6.17-3.397zm-.335 1.078c1.98.279 3.35 1.178 4.108 2.697.758 1.52 1.008 3.363.749 5.529a18.104 18.104 0 0 1-1.755 6c-.925 1.87-2.15 3.353-3.678 4.45-1.527 1.097-3.317 1.55-5.37 1.358-1.966-.275-3.327-1.169-4.083-2.683-.756-1.514-1.003-3.36-.743-5.539a18.17 18.17 0 0 1 1.747-6c.92-1.871 2.14-3.355 3.663-4.453 1.522-1.097 3.31-1.55 5.362-1.359z" font-size="30" font-style="oblique" font-weight="400" letter-spacing="6.68" word-spacing="0" text-anchor="middle" fill="#f0f" font-family="SkolaSerifIt"/></svg>