<svg xmlns="http://www.w3.org/2000/svg" width="191.069" height="188.846"><path d="M124.367 123.874H30.011a1.524 1.524 0 0 1-1.527-1.527V65.019c0-.846.681-1.527 1.527-1.527l11.979-.044m10.695-.22l99.908.265c.846 0 1.527.68 1.527 1.527v57.327c0 .846-.681 1.527-1.527 1.527h-17.84" fill="none" stroke="#000" stroke-width="3" stroke-linecap="round"/><path d="M124.588 123.391v15.734l-5.833 6.894" fill="none" stroke="#000"/><path d="M124.588 123.391v15.734l-5.833 6.894" fill="none" stroke="#000"/><path d="M124.5 124.275l.088 14.85-5.833 6.894m16-21.655v14.76l5.833 6.895M42.412 63.433l.176-13.435-5.833-6.894m15.911 19.799l.089-12.905 5.833-6.894" stroke="#000" fill="none" stroke-width="3" stroke-linecap="round" stroke-linejoin="round"/><path d="M43.094 41.72l4.862 5.039 4.684-5.038h-9.546zm4.773 0v-7.336m77.227 113.336l4.862 5.039 4.684-5.038h-9.546zm4.773 0v-7.336" stroke="#000"/><text x="16.224" y="29.17" font-size="40" font-weight="400" font-family="Bitstream Vera Sans"><tspan x="16.224" y="29.17" font-size="16">INPUT x</tspan></text><text x="44.155" y="99.527" font-size="40" font-weight="400" font-family="Bitstream Vera Sans"><tspan x="44.155" y="99.527" font-size="16">FUNCTION f:</tspan></text><text x="80.571" y="167.762" font-size="40" font-weight="400" font-family="Bitstream Vera Sans"><tspan x="80.571" y="167.762" font-size="16">OUTPUT f(x)</tspan></text></svg>