<svg xmlns="http://www.w3.org/2000/svg" xmlns:xlink="http://www.w3.org/1999/xlink" width="321.018" height="345.32"><defs><linearGradient id="a"><stop offset="0" stop-color="#ffc103"/><stop offset=".5" stop-color="#ffc103"/><stop offset="1" stop-color="#ffc103" stop-opacity="0"/></linearGradient><linearGradient id="b"><stop offset="0" stop-color="#c033d6"/><stop offset=".5" stop-color="#c033d6"/><stop offset="1" stop-color="#c033d6" stop-opacity="0"/></linearGradient><linearGradient id="e"><stop offset="0" stop-color="#05944c"/><stop offset=".5" stop-color="#05944c"/><stop offset="1" stop-color="#05944c" stop-opacity="0"/></linearGradient><linearGradient id="d"><stop offset="0" stop-color="#0983ff"/><stop offset=".5" stop-color="#0783e6"/><stop offset="1" stop-color="#0683cd" stop-opacity="0"/></linearGradient><linearGradient id="c"><stop offset="0" stop-color="#bd264f"/><stop offset=".5" stop-color="#bd264f"/><stop offset="1" stop-color="#bd264f" stop-opacity="0"/></linearGradient><radialGradient xlink:href="#a" id="j" cx="263.65" cy="113.425" fx="263.65" fy="113.425" r="18.688" gradientUnits="userSpaceOnUse"/><radialGradient xlink:href="#b" id="i" cx="263.65" cy="113.425" fx="263.65" fy="113.425" r="18.688" gradientUnits="userSpaceOnUse"/><radialGradient xlink:href="#c" id="f" cx="263.65" cy="113.425" fx="263.65" fy="113.425" r="18.688" gradientUnits="userSpaceOnUse"/><radialGradient xlink:href="#d" id="g" cx="263.65" cy="113.425" fx="263.65" fy="113.425" r="18.688" gradientUnits="userSpaceOnUse"/><radialGradient xlink:href="#e" id="h" cx="263.65" cy="113.425" fx="263.65" fy="113.425" r="18.688" gradientUnits="userSpaceOnUse"/></defs><path d="M130.088 185.937c0 67.784-24.987 122.734-55.81 122.734-30.824 0-55.811-54.95-55.811-122.734 0-67.784 24.987-122.733 55.81-122.733 30.824 0 55.811 54.95 55.811 122.733zm172.464 1.515c0 76.99-27.25 139.401-60.862 139.401-33.613 0-60.862-62.412-60.862-139.4 0-76.99 27.249-139.402 60.862-139.402s60.862 62.412 60.862 139.401z" fill="none" stroke="#969696" stroke-width="1.5"/><path d="M91.198 111.69l-18.61.138-18.608.137 9.186-16.184 9.185-16.184 9.423 16.047z" fill="#bd264f" stroke="#000" stroke-width="1.5"/><path fill="#ffc103" stroke="#000" stroke-width="1.5" d="M47.256 141.49h48.487v12.628H47.256z"/><path d="M89.177 195.028l-17.172-11.616-15.658 14.647 6.566 25.254 26.77-9.092-15.658-10.606z" fill="#05944c" stroke="#000" stroke-width="1.5"/><path fill="#bd264f" stroke="#000" stroke-width="1.5" d="M55.842 249.072h31.82v31.315h-31.82z"/><path d="M282.338 113.425c0 10.321-8.367 18.688-18.688 18.688-10.321 0-18.688-8.367-18.688-18.688 0-10.32 8.367-18.687 18.688-18.687 10.32 0 18.688 8.366 18.688 18.687z" transform="translate(-21.96 -26.988)" fill="url(#f)"/><path transform="translate(-21.96 22.004)" d="M282.338 113.425c0 10.321-8.367 18.688-18.688 18.688-10.321 0-18.688-8.367-18.688-18.688 0-10.32 8.367-18.687 18.688-18.687 10.32 0 18.688 8.366 18.688 18.687z" fill="url(#g)"/><path transform="translate(-21.96 70.491)" d="M282.338 113.425c0 10.321-8.367 18.688-18.688 18.688-10.321 0-18.688-8.367-18.688-18.688 0-10.32 8.367-18.687 18.688-18.687 10.32 0 18.688 8.366 18.688 18.687z" fill="url(#h)"/><path transform="translate(-21.96 117.969)" d="M282.338 113.425c0 10.321-8.367 18.688-18.688 18.688-10.321 0-18.688-8.367-18.688-18.688 0-10.32 8.367-18.687 18.688-18.687 10.32 0 18.688 8.366 18.688 18.687z" fill="url(#i)"/><path transform="translate(-21.96 164.94)" d="M282.338 113.425c0 10.321-8.367 18.688-18.688 18.688-10.321 0-18.688-8.367-18.688-18.688 0-10.32 8.367-18.687 18.688-18.687 10.32 0 18.688 8.366 18.688 18.687z" fill="url(#j)"/><path style="text-indent:0;text-align:start;line-height:normal;text-transform:none;block-progression:tb;marker:none;-inkscape-font-specification:Sans" d="M230.55 85.418L81.582 95.543l.062 1 149-10.125-.094-1z" font-weight="400" color="#000" overflow="visible" font-family="Sans"/><path d="M235.204 85.62l-6.634 4.459-.54-7.982 7.174 3.523z" fill-rule="evenodd" stroke="#000" stroke-width=".8pt"/><path style="text-indent:0;text-align:start;line-height:normal;text-transform:none;block-progression:tb;marker:none;-inkscape-font-specification:Sans" d="M233.238 94.7L87.269 265.417l.781.656L234.02 95.355l-.781-.656z" font-weight="400" color="#000" overflow="visible" font-family="Sans"/><path d="M236.629 91.515l-1.457 7.859-6.08-5.199 7.537-2.66z" fill-rule="evenodd" stroke="#000" stroke-width=".8pt"/><path style="text-indent:0;text-align:start;line-height:normal;text-transform:none;block-progression:tb;marker:none;-inkscape-font-specification:Sans" d="M231.613 184.418L79.05 187.449l.031 1 152.532-3.031v-1z" font-weight="400" color="#000" overflow="visible" font-family="Sans"/><path d="M236.224 184.835l-6.84 4.137-.158-7.999 6.998 3.862z" fill-rule="evenodd" stroke="#000" stroke-width=".8pt"/><path style="text-indent:0;text-align:start;line-height:normal;text-transform:none;block-progression:tb;marker:none;-inkscape-font-specification:Sans" d="M95.582 147.168l-.688.75L232.8 274.699l.657-.75L95.582 147.168z" font-weight="400" color="#000" overflow="visible" font-family="Sans"/><path d="M236.522 277.45l-7.801-1.74 5.414-5.889 2.387 7.629z" fill-rule="evenodd" stroke="#000" stroke-width=".8pt"/><text style="line-height:125%;-inkscape-font-specification:Liberation Sans Oblique" x="87.718" y="81.969" font-size="28" font-style="oblique" font-weight="400" letter-spacing="0" word-spacing="0" font-family="Liberation Sans" transform="translate(-22.95 -26.988)"><tspan x="87.718" y="81.969">X</tspan></text><text style="line-height:125%;-inkscape-font-specification:Liberation Sans Oblique" x="253.005" y="63.969" font-size="28" font-style="oblique" font-weight="400" letter-spacing="0" word-spacing="0" font-family="Liberation Sans" transform="translate(-22.95 -26.988)"><tspan x="253.005" y="63.969">Y</tspan></text></svg>