<svg xmlns="http://www.w3.org/2000/svg" version="1" width="1000" height="1000"><path d="M416.934 461.632l-235.937 393.23h471.868V68.424L416.934 461.632zm-157.299 391.23c0-27.61-14.499-53.236-38.17-67.43" fill="none" stroke="#000" stroke-width="4.422" stroke-miterlimit="10"/><path d="M652.865 805.675h-47.187v47.187" fill="none" stroke="#000" stroke-width="4.422" stroke-miterlimit="10"/><path d="M156.388 870.759h-17.005l-2.98 6.932q-1.101 2.559-1.101 3.822 0 1.004.939 1.781.972.745 4.146.972v1.199h-13.83v-1.199q2.752-.486 3.562-1.263 1.652-1.555 3.66-6.316l15.45-36.149h1.135l15.288 36.537q1.846 4.405 3.336 5.733 1.523 1.296 4.211 1.458v1.199H155.87v-1.199q2.624-.13 3.53-.874.94-.745.94-1.814 0-1.426-1.296-4.503l-2.656-6.316zm-.907-2.397l-7.45-17.75-7.644 17.75h15.094zm570.682 14.145l1.004 14.933h-1.004q-2.008-6.705-5.733-9.653-3.725-2.948-8.94-2.948-4.373 0-7.904 2.235-3.53 2.203-5.57 7.062-2.01 4.858-2.01 12.082 0 5.96 1.912 10.332 1.911 4.373 5.733 6.705 3.855 2.332 8.778 2.332 4.276 0 7.547-1.813 3.272-1.847 7.191-7.288l1.004.647q-3.304 5.863-7.709 8.584-4.405 2.72-10.462 2.72-10.916 0-16.908-8.097-4.47-6.025-4.47-14.187 0-6.576 2.947-12.082 2.948-5.507 8.098-8.519 5.183-3.045 11.305-3.045 4.761 0 9.393 2.332 1.36.713 1.943.713.875 0 1.523-.615.842-.875 1.198-2.43h1.134zM673.969 28.628q4.567.972 6.834 3.11 3.142 2.98 3.142 7.287 0 3.272-2.073 6.284-2.073 2.98-5.7 4.373-3.596 1.36-11.014 1.36h-20.73v-1.198h1.652q2.753 0 3.952-1.749.745-1.134.745-4.826V14.894q0-4.081-.94-5.15-1.263-1.425-3.757-1.425h-1.652V7.12h18.981q5.312 0 8.519.778 4.859 1.166 7.418 4.146 2.558 2.947 2.558 6.802 0 3.304-2.008 5.927-2.008 2.592-5.927 3.855zm-16.973-1.75q1.198.228 2.72.357 1.555.097 3.402.097 4.729 0 7.093-1.004 2.397-1.036 3.66-3.142 1.264-2.105 1.264-4.6 0-3.854-3.142-6.575-3.142-2.72-9.167-2.72-3.239 0-5.83.712v16.876zm0 20.99q3.757.875 7.417.875 5.863 0 8.94-2.624 3.077-2.656 3.077-6.543 0-2.559-1.392-4.923-1.393-2.365-4.535-3.725-3.142-1.36-7.774-1.36-2.008 0-3.434.064-1.425.065-2.3.227v18.01z" font-size="11.955" font-family="Times New Roman"/><path d="M416.997 869.309l-6.381 22.382q3.11-3.24 5.409-4.438 2.332-1.198 4.859-1.198 3.563 0 5.83 2.364 2.267 2.365 2.267 6.414 0 5.215-2.98 10.397-2.98 5.15-7.482 8.033-4.502 2.883-8.875 2.883-4.891 0-10.041-3.66l9.847-33.913q1.133-3.92 1.133-4.6 0-.842-.518-1.263-.745-.583-2.203-.583-.68 0-2.073.226v-1.23l11.208-1.814zm-12.536 43.533q3.24 1.782 5.701 1.782 2.85 0 5.895-2.073 3.077-2.106 5.312-7.061 2.268-4.956 2.268-10.01 0-2.98-1.49-4.664-1.458-1.684-3.466-1.684-3.012 0-5.895 2.43-2.883 2.396-4.114 6.704l-4.21 14.576z" font-style="oblique" font-size="11.955" font-family="Times New Roman" fill="green"/><path d="M731.18 440.473l-6.316 21.961-.713 2.948q-.097.421-.097.713 0 .518.324.907.26.291.648.291.421 0 1.101-.518 1.264-.94 3.369-3.887l1.101.777q-2.235 3.369-4.6 5.15-2.364 1.75-4.372 1.75-1.393 0-2.105-.713-.68-.68-.68-2.008 0-1.587.712-4.179l.68-2.429q-4.243 5.539-7.806 7.741-2.559 1.588-5.02 1.588-2.365 0-4.082-1.944-1.717-1.976-1.717-5.41 0-5.15 3.077-10.85 3.11-5.733 7.871-9.167 3.725-2.72 7.03-2.72 1.975 0 3.27 1.036 1.329 1.036 2.01 3.433l1.165-3.692 5.15-.778zm-11.53 1.685q-2.074 0-4.406 1.943-3.304 2.753-5.895 8.163-2.56 5.409-2.56 9.782 0 2.202 1.102 3.498 1.101 1.263 2.527 1.263 3.53 0 7.676-5.215 5.54-6.931 5.54-14.22 0-2.753-1.07-3.984-1.069-1.23-2.915-1.23z" font-style="oblique" font-size="11.955" font-family="Times New Roman" fill="#d40000"/><path d="M379.325 407.752l-9.101 31.452q5.895-8.875 9.199-11.79 3.303-2.916 6.316-2.916 1.555 0 2.591 1.07 1.037 1.068 1.037 2.85 0 2.137-.907 5.182l-3.952 13.572q-.745 2.462-.745 2.72 0 .454.26.746.29.291.647.291.421 0 .972-.42 1.846-1.426 3.66-3.952l1.004.615q-1.101 1.717-3.077 3.79-1.944 2.04-3.369 2.85-1.393.778-2.494.778-1.198 0-1.976-.778-.745-.745-.745-1.943 0-1.426 1.134-5.312l3.725-12.957q.712-2.43.712-3.822 0-.648-.42-1.037-.39-.388-1.037-.388-.94 0-2.138.712-2.203 1.36-5.085 5.053-.778 1.004-5.183 8.098-1.36 2.267-2.235 4.956l-2.073 6.64h-4.859l10.657-37.055 1.134-4.017q0-.842-.713-1.49-.68-.648-1.684-.648-.583 0-1.782.195l-.68.097v-1.263l11.207-1.879z" font-style="oblique" font-size="11.955" font-family="Times New Roman" fill="#00f"/><path d="M535.552 930.309l1.102-.616q3.854 7.32 5.506 12.957 1.328 4.405 1.328 8.875 0 10.462-4.826 18.69-5.96 10.138-19.208 19.726l-.777-1.004q5.992-4.47 9.782-9.944 4.729-6.867 7.741-16.585 3.013-9.75 3.013-17.717 0-6.09-3.66-14.382zm-10.818 8.098l-2.527 8.81h5.086l-.55 2.04h-5.054l-5.571 19.111q-.907 3.078-.907 3.985 0 .55.259.842.26.291.615.291.81 0 2.138-1.133.778-.648 3.466-3.985l1.069.81q-2.98 4.34-5.636 6.122-1.814 1.231-3.66 1.231-1.425 0-2.332-.875-.907-.907-.907-2.3 0-1.748 1.036-5.344l5.41-18.754h-4.892l.324-1.264q3.563-.971 5.928-2.882 2.364-1.944 5.28-6.705h1.425zm-35.76 8.033l-4.308 14.738q6.057-9.038 9.264-11.888 3.239-2.85 6.219-2.85 1.62 0 2.656 1.069 1.069 1.068 1.069 2.785 0 1.944-.94 5.183l-3.951 13.636q-.68 2.365-.68 2.883 0 .454.259.778.259.291.55.291.39 0 .94-.42 1.717-1.361 3.757-4.147l1.004.615q-3.012 4.308-5.7 6.155-1.88 1.263-3.37 1.263-1.198 0-1.91-.745-.713-.713-.713-1.943 0-1.555 1.101-5.345l3.758-13.021q.712-2.43.712-3.79 0-.648-.42-1.036-.422-.422-1.037-.422-.907 0-2.17.778-2.397 1.457-4.989 4.826-2.59 3.336-5.474 8.551-1.522 2.754-2.526 6.025l-1.62 5.345h-4.858l5.895-20.277q1.036-3.66 1.036-4.405 0-.713-.583-1.231-.55-.55-1.393-.55-.388 0-1.36.129l-1.23.194-.195-1.166 11.207-2.008zm-36.148 17.102q-.227 1.62-.227 2.689 0 2.882 2.04 4.923 2.041 2.008 4.956 2.008 2.332 0 4.47-.939 2.17-.972 6.414-4.243l.68.94q-7.677 7.611-14.64 7.611-4.73 0-7.127-2.98-2.397-2.98-2.397-6.575 0-4.827 2.98-9.88 2.98-5.053 7.483-7.838 4.502-2.818 9.263-2.818 3.434 0 5.086 1.392 1.652 1.393 1.652 3.304 0 2.689-2.138 5.15-2.818 3.207-8.292 5.183-3.628 1.328-10.203 2.073zm.226-1.587q4.794-.55 7.807-1.879 3.984-1.781 5.96-4.243 2.008-2.494 2.008-4.729 0-1.36-.875-2.203-.842-.842-2.43-.842-3.303 0-7.028 3.53-3.693 3.5-5.442 10.366zm-11.92 6.737q-3.368 4.05-6.802 5.96-3.433 1.879-7.255 1.879-4.6 0-7.191-2.591-2.56-2.592-2.56-6.964 0-4.956 2.754-9.75 2.786-4.794 7.45-7.774 4.697-3.012 9.2-3.012 3.53 0 5.279 1.49 1.75 1.457 1.75 3.595 0 2.008-1.232 3.434-.907 1.1-2.235 1.1-1.004 0-1.684-.647-.648-.648-.648-1.62 0-.615.227-1.133.259-.519 1.004-1.231.777-.745.94-1.069.161-.324.161-.68 0-.68-.615-1.134-.94-.648-2.656-.648-3.175 0-6.284 2.235-3.11 2.235-5.312 6.349-2.656 4.988-2.656 9.976 0 3.304 1.878 5.248 1.879 1.91 5.118 1.91 2.494 0 4.924-1.23 2.461-1.263 5.506-4.535l.94.842zM413.47 946.44l-6.316 21.96-.712 2.948q-.098.422-.098.713 0 .518.324.907.26.292.648.292.421 0 1.101-.519 1.264-.94 3.369-3.887l1.101.778q-2.235 3.368-4.6 5.15-2.364 1.749-4.372 1.749-1.393 0-2.105-.713-.68-.68-.68-2.008 0-1.587.712-4.178l.68-2.43q-4.243 5.54-7.806 7.742-2.559 1.587-5.02 1.587-2.365 0-4.082-1.943-1.717-1.976-1.717-5.41 0-5.15 3.077-10.85 3.11-5.734 7.871-9.167 3.725-2.721 7.03-2.721 1.975 0 3.27 1.036 1.329 1.037 2.01 3.434l1.165-3.693 5.15-.777zm-11.53 1.684q-2.074 0-4.406 1.943-3.304 2.754-5.895 8.163-2.56 5.41-2.56 9.782 0 2.203 1.102 3.498 1.101 1.264 2.527 1.264 3.53 0 7.676-5.215 5.54-6.932 5.54-14.22 0-2.753-1.07-3.984-1.069-1.231-2.915-1.231zm-22.804-14.511q1.36 0 2.3.972.971.939.971 2.3 0 1.36-.971 2.331-.94.94-2.3.94-1.36 0-2.332-.94-.94-.971-.94-2.332 0-1.36.94-2.3.971-.971 2.332-.971zm.518 12.827l-8.39 28.99q-2.234 7.774-6.154 11.207-3.886 3.433-8.421 3.433-2.04 0-3.077-.939-1.07-.94-1.07-2.235 0-1.004.81-1.781.778-.745 1.814-.745.94 0 1.652.615.583.486.583 1.101 0 .843-.81 1.458-.453.356-.453.583l.065.162q.097.13.291.194.195.065.583.065 2.624 0 4.503-1.684 1.846-1.652 3.304-6.64l7.255-24.877q1.07-3.66 1.07-4.049 0-.777-.713-1.392-.68-.616-1.75-.616-.42 0-.971.097-.421.065-1.231.195v-1.134l11.11-2.008zm-12.989-16.747l-11.142 38.222q-.907 3.11-.907 4.081 0 .324.259.616.291.291.583.291.421 0 1.004-.42 1.101-.778 3.693-3.888l1.1.68q-2.331 3.24-4.728 5.248-2.365 2.008-4.438 2.008-1.101 0-1.814-.777-.712-.778-.712-2.203 0-1.846.971-4.956l1.264-4.016q-4.697 7.255-8.552 10.04-2.656 1.912-5.085 1.912-2.462 0-4.308-2.17-1.814-2.203-1.814-5.96 0-4.826 3.077-10.3 3.077-5.475 8.13-8.908 3.985-2.753 7.32-2.753 1.75 0 3.013.712 1.263.713 2.494 2.365l3.175-11.272q.356-1.199.583-1.911.388-1.296.388-2.138 0-.68-.485-1.134-.68-.55-1.75-.55-.745 0-2.461.226v-1.198l11.142-1.847zm-12.017 22.998q0-2.073-1.198-3.336-1.199-1.263-3.045-1.263-4.081 0-8.519 6.737-4.405 6.737-4.405 12.892 0 2.429 1.069 3.725 1.069 1.263 2.559 1.263 3.368 0 8.454-7.288 5.085-7.288 5.085-12.73zm-25.913-6.251l-6.316 21.96-.713 2.948q-.097.422-.097.713 0 .518.324.907.26.292.648.292.421 0 1.101-.519 1.263-.94 3.369-3.887l1.101.778q-2.235 3.368-4.6 5.15-2.364 1.749-4.372 1.749-1.393 0-2.106-.713-.68-.68-.68-2.008 0-1.587.713-4.178l.68-2.43q-4.243 5.54-7.806 7.742-2.56 1.587-5.02 1.587-2.365 0-4.082-1.943-1.717-1.976-1.717-5.41 0-5.15 3.077-10.85 3.11-5.734 7.871-9.167 3.725-2.721 7.03-2.721 1.975 0 3.27 1.036 1.329 1.037 2.009 3.434l1.166-3.693 5.15-.777zm-11.531 1.684q-2.073 0-4.405 1.943-3.304 2.754-5.895 8.163-2.56 5.41-2.56 9.782 0 2.203 1.102 3.498 1.101 1.264 2.527 1.264 3.53 0 7.676-5.215 5.54-6.932 5.54-14.22 0-2.753-1.07-3.984-1.069-1.231-2.915-1.231zm-29.152 41.299l-1.101.518q-3.855-7.353-5.54-12.989-1.295-4.405-1.295-8.875 0-10.43 4.826-18.69 5.928-10.106 19.208-19.694l.778 1.134q-5.993 4.438-9.782 9.944-4.73 6.867-7.742 16.584-3.012 9.718-3.012 17.686 0 6.09 3.66 14.382z" font-style="oblique" font-size="11.955" font-family="Times New Roman" fill="green"/><path d="M953.085 540.007l1.102-.615q3.854 7.32 5.506 12.956 1.328 4.405 1.328 8.875 0 10.463-4.826 18.69-5.96 10.138-19.208 19.726l-.777-1.004q5.992-4.47 9.782-9.944 4.729-6.867 7.741-16.584 3.013-9.75 3.013-17.718 0-6.09-3.66-14.382zm-31.16 33.233q-.227 1.62-.227 2.689 0 2.883 2.041 4.923 2.04 2.008 4.956 2.008 2.332 0 4.47-.939 2.17-.972 6.413-4.243l.68.94q-7.676 7.611-14.64 7.611-4.73 0-7.126-2.98-2.397-2.98-2.397-6.575 0-4.826 2.98-9.88 2.98-5.053 7.482-7.838 4.502-2.818 9.264-2.818 3.433 0 5.085 1.393 1.652 1.392 1.652 3.304 0 2.688-2.138 5.15-2.818 3.206-8.292 5.182-3.627 1.328-10.203 2.073zm.227-1.587q4.794-.55 7.806-1.879 3.984-1.781 5.96-4.243 2.008-2.494 2.008-4.729 0-1.36-.874-2.202-.842-.843-2.43-.843-3.303 0-7.028 3.531-3.693 3.498-5.442 10.365zm-9.296-23.548l-2.527 8.81h5.086l-.551 2.04h-5.053l-5.571 19.112q-.907 3.077-.907 3.984 0 .55.259.842.259.291.615.291.81 0 2.138-1.133.777-.648 3.466-3.984l1.069.81q-2.98 4.34-5.636 6.121-1.814 1.231-3.66 1.231-1.426 0-2.333-.874-.907-.907-.907-2.3 0-1.75 1.037-5.345l5.41-18.754h-4.892l.324-1.263q3.563-.972 5.928-2.883 2.364-1.944 5.28-6.705h1.425zm-20.795-4.826q1.36 0 2.3.939.939.94.939 2.3 0 1.328-.972 2.3-.94.939-2.267.939-1.328 0-2.3-.94-.94-.971-.94-2.3 0-1.36.94-2.3.94-.938 2.3-.938zm.42 12.859l-6.413 22.706q-.648 2.3-.648 2.753 0 .518.292.842.324.324.745.324.486 0 1.166-.518 1.846-1.458 3.725-4.146l1.134.745q-2.203 3.369-5.183 5.668-2.203 1.717-4.21 1.717-1.329 0-2.171-.777-.842-.81-.842-2.008 0-1.199.81-3.985l4.21-14.51q1.037-3.564 1.037-4.47 0-.713-.518-1.167-.486-.453-1.36-.453-.713 0-2.948.356v-1.263l11.175-1.814zm-16.972 0l-1.976 9.944h-1.199q-.162-4.34-1.846-6.316-1.684-1.976-4.178-1.976-2.009 0-3.207 1.101-1.166 1.101-1.166 2.656 0 1.069.453 2.04.486.973 2.073 2.722 4.211 4.6 5.442 6.931 1.23 2.332 1.23 4.406 0 3.368-2.817 5.992-2.786 2.591-7.061 2.591-2.333 0-5.377-1.101-1.07-.389-1.652-.389-1.458 0-2.203 1.49h-1.198l1.976-10.495H854q.194 4.924 2.04 6.965 1.847 2.04 5.054 2.04 2.461 0 3.887-1.36 1.457-1.393 1.457-3.401 0-1.296-.518-2.397-.907-1.944-3.822-5.377-2.883-3.434-3.725-5.15-.81-1.717-.81-3.434 0-3.142 2.267-5.312 2.3-2.17 5.896-2.17 1.036 0 1.878.162.454.097 2.106.745 1.684.615 2.235.615 1.392 0 2.332-1.522h1.23zm-26.561 10.138q0 4.859-2.591 9.62-2.56 4.762-7.159 7.548-4.6 2.785-8.94 2.785-4.437 0-7.255-2.818-2.786-2.85-2.786-7.353 0-4.761 2.72-9.555 2.754-4.794 7.321-7.58 4.6-2.785 8.875-2.785 4.276 0 7.03 2.818 2.785 2.818 2.785 7.32zm-5.377-2.235q0-3.012-1.49-4.6-1.458-1.619-3.79-1.619-4.761 0-8.778 6.835-3.984 6.802-3.984 13.54 0 3.076 1.555 4.76 1.555 1.653 3.92 1.653 4.566 0 8.55-6.77 4.017-6.802 4.017-13.799zm-43.793-7.903l-2.235 7.45q3.53-4.146 6.284-5.798 2.786-1.652 5.669-1.652 2.882 0 4.923 2.3 2.04 2.267 2.04 5.927 0 7.126-5.797 14.511-5.798 7.353-13.507 7.353-1.62 0-2.883-.356-1.231-.356-2.786-1.263l-2.364 8.357q-.713 2.461-.713 3.206 0 .713.356 1.199.389.518 1.231.777.842.292 3.336.292l-.291 1.198h-15.256l.324-1.198q3.012-.13 4.08-1.037 1.037-.907 2.203-5.02l8.195-28.375q.745-2.689.745-3.336 0-.875-.518-1.36-.486-.487-1.522-.487-.94 0-2.624.227v-1.263l11.11-1.652zm-7.547 25.913q2.008 2.397 5.41 2.397 1.684 0 3.433-.94 1.749-.939 3.401-2.785 1.684-1.847 3.012-4.244 1.328-2.429 2.365-5.7 1.069-3.272 1.069-6.479 0-2.59-1.199-3.951-1.166-1.393-2.753-1.393-3.498 0-6.932 4.016-3.4 4.017-4.988 9.394l-2.818 9.685zm-25.621-25.913l-2.235 7.45q3.53-4.146 6.284-5.798 2.785-1.652 5.668-1.652t4.924 2.3q2.04 2.267 2.04 5.927 0 7.126-5.798 14.511-5.798 7.353-13.507 7.353-1.62 0-2.883-.356-1.23-.356-2.785-1.263l-2.365 8.357q-.713 2.461-.713 3.206 0 .713.357 1.199.388.518 1.23.777.843.292 3.337.292l-.292 1.198h-15.256l.324-1.198q3.012-.13 4.081-1.037 1.037-.907 2.203-5.02l8.195-28.375q.745-2.689.745-3.336 0-.875-.518-1.36-.486-.487-1.523-.487-.94 0-2.623.227v-1.263l11.11-1.652zm-7.547 25.913q2.008 2.397 5.409 2.397 1.684 0 3.433-.94 1.75-.939 3.401-2.785 1.685-1.847 3.013-4.244 1.328-2.429 2.364-5.7 1.07-3.272 1.07-6.479 0-2.59-1.2-3.951-1.165-1.393-2.752-1.393-3.499 0-6.932 4.016-3.401 4.017-4.988 9.394l-2.818 9.685zm-9.62-15.775q0 4.859-2.592 9.62-2.559 4.762-7.158 7.548-4.6 2.785-8.94 2.785-4.438 0-7.256-2.818-2.785-2.85-2.785-7.353 0-4.761 2.72-9.555 2.754-4.794 7.32-7.58 4.6-2.785 8.876-2.785t7.029 2.818q2.785 2.818 2.785 7.32zm-5.377-2.235q0-3.012-1.49-4.6-1.458-1.619-3.79-1.619-4.762 0-8.778 6.835-3.984 6.802-3.984 13.54 0 3.076 1.554 4.76 1.555 1.653 3.92 1.653 4.567 0 8.551-6.77 4.017-6.802 4.017-13.799zm-34.853 35.08l-1.102.518q-3.854-7.353-5.538-12.989-1.296-4.405-1.296-8.875 0-10.43 4.826-18.69 5.928-10.106 19.208-19.693l.777 1.133q-5.992 4.438-9.782 9.944-4.729 6.867-7.741 16.585-3.012 9.717-3.012 17.685 0 6.09 3.66 14.382z" font-style="oblique" font-size="11.955" font-family="Times New Roman" fill="#d40000"/><path d="M419.753 288.468l1.101-.615q3.855 7.32 5.507 12.956 1.328 4.406 1.328 8.876 0 10.462-4.827 18.69-5.96 10.138-19.208 19.725l-.777-1.004q5.992-4.47 9.782-9.944 4.73-6.867 7.742-16.584 3.012-9.75 3.012-17.718 0-6.09-3.66-14.382zm-31.16 33.234q-.227 1.62-.227 2.688 0 2.883 2.04 4.924 2.041 2.008 4.956 2.008 2.332 0 4.47-.94 2.17-.971 6.414-4.243l.68.94q-7.677 7.612-14.64 7.612-4.73 0-7.127-2.98-2.397-2.98-2.397-6.576 0-4.826 2.98-9.88 2.98-5.052 7.482-7.838 4.503-2.818 9.264-2.818 3.434 0 5.086 1.393 1.652 1.393 1.652 3.304 0 2.688-2.138 5.15-2.818 3.207-8.292 5.183-3.628 1.328-10.203 2.073zm.226-1.587q4.794-.551 7.807-1.88 3.984-1.78 5.96-4.242 2.008-2.494 2.008-4.73 0-1.36-.875-2.202-.842-.842-2.43-.842-3.303 0-7.028 3.53-3.693 3.499-5.442 10.366zm-9.847-15.516l-1.975 9.944h-1.199q-.162-4.34-1.846-6.316-1.685-1.976-4.179-1.976-2.008 0-3.206 1.101-1.166 1.102-1.166 2.657 0 1.068.453 2.04.486.972 2.073 2.721 4.21 4.6 5.442 6.932 1.23 2.332 1.23 4.405 0 3.369-2.817 5.992-2.786 2.592-7.062 2.592-2.332 0-5.377-1.102-1.069-.388-1.652-.388-1.457 0-2.202 1.49h-1.199l1.976-10.495h1.199q.194 4.923 2.04 6.964 1.847 2.04 5.053 2.04 2.462 0 3.887-1.36 1.458-1.393 1.458-3.4 0-1.297-.518-2.398-.907-1.943-3.823-5.377-2.882-3.433-3.725-5.15-.81-1.717-.81-3.433 0-3.142 2.268-5.313 2.3-2.17 5.895-2.17 1.037 0 1.879.162.453.097 2.105.745 1.685.616 2.235.616 1.393 0 2.332-1.523h1.231zm-26.01.778l-5.636 19.305q-1.263 4.308-1.263 5.441 0 .583.194.875.227.26.583.26.551 0 1.199-.487.68-.518 3.369-4.016l.971.745q-2.559 4.049-5.247 5.96-1.782 1.23-3.434 1.23-1.263 0-1.975-.712-.713-.713-.713-1.846 0-1.102.421-2.916.518-2.396 2.948-10.43-5.507 9.038-9.232 12.471-3.692 3.434-6.867 3.434-1.49 0-2.526-1.037-1.037-1.036-1.037-2.624 0-2.429 1.425-7.45l2.818-10.008q1.037-3.596 1.037-4.47 0-.39-.292-.648-.259-.292-.583-.292-.68 0-1.36.486t-3.077 3.596l-1.004-.713q2.43-3.757 5.15-5.539 2.073-1.393 3.822-1.393 1.199 0 1.944.778.777.745.777 1.943 0 1.75-1.296 6.252l-3.044 10.462q-1.264 4.275-1.264 5.41 0 .615.389 1.003.421.357 1.101.357 1.07 0 2.786-1.07 1.717-1.068 4.567-4.728 2.883-3.693 4.73-6.9 1.878-3.239 3.983-10.268l.713-2.461h4.923zm-49.752-.778l-4.308 14.738q6.057-9.037 9.263-11.887 3.24-2.85 6.22-2.85 1.62 0 2.656 1.068 1.068 1.069 1.068 2.786 0 1.943-.939 5.182l-3.952 13.637q-.68 2.365-.68 2.883 0 .453.26.777.258.292.55.292.389 0 .94-.421 1.716-1.36 3.757-4.146l1.004.615q-3.013 4.308-5.701 6.154-1.879 1.264-3.369 1.264-1.198 0-1.91-.745-.713-.713-.713-1.944 0-1.555 1.1-5.344l3.758-13.022q.713-2.429.713-3.79 0-.647-.421-1.036-.421-.421-1.037-.421-.907 0-2.17.777-2.397 1.458-4.988 4.827-2.591 3.336-5.474 8.55-1.523 2.754-2.527 6.026l-1.62 5.344h-4.858l5.895-20.277q1.037-3.66 1.037-4.405 0-.712-.583-1.23-.551-.551-1.393-.551-.389 0-1.36.13l-1.231.194-.195-1.167 11.208-2.008zm-36.149 17.103q-.227 1.62-.227 2.688 0 2.883 2.041 4.924 2.04 2.008 4.956 2.008 2.332 0 4.47-.94 2.17-.971 6.413-4.243l.68.94q-7.676 7.612-14.64 7.612-4.73 0-7.126-2.98-2.397-2.98-2.397-6.576 0-4.826 2.98-9.88 2.98-5.052 7.482-7.838 4.502-2.818 9.264-2.818 3.433 0 5.085 1.393 1.652 1.393 1.652 3.304 0 2.688-2.138 5.15-2.818 3.207-8.292 5.183-3.628 1.328-10.203 2.073zm.227-1.587q4.794-.551 7.806-1.88 3.984-1.78 5.96-4.242 2.008-2.494 2.008-4.73 0-1.36-.874-2.202-.842-.842-2.43-.842-3.304 0-7.028 3.53-3.693 3.499-5.442 10.366zm-9.296-23.549l-2.527 8.81h5.085l-.55 2.041h-5.053l-5.571 19.111q-.907 3.077-.907 3.984 0 .55.259.842.259.292.615.292.81 0 2.138-1.134.777-.648 3.466-3.984l1.069.81q-2.98 4.34-5.636 6.122-1.814 1.23-3.66 1.23-1.426 0-2.333-.874-.907-.907-.907-2.3 0-1.749 1.037-5.344l5.41-18.755h-4.892l.324-1.263q3.563-.972 5.928-2.883 2.364-1.943 5.28-6.705h1.425zm-19.727 18.172q0 4.858-2.59 9.62-2.56 4.761-7.16 7.547-4.599 2.786-8.94 2.786-4.437 0-7.255-2.818-2.786-2.85-2.786-7.353 0-4.762 2.721-9.556 2.754-4.794 7.32-7.58 4.6-2.785 8.876-2.785t7.029 2.818q2.785 2.818 2.785 7.32zm-5.377-2.235q0-3.013-1.49-4.6-1.457-1.62-3.79-1.62-4.76 0-8.777 6.835-3.984 6.802-3.984 13.54 0 3.077 1.554 4.761 1.555 1.652 3.92 1.652 4.567 0 8.551-6.77 4.016-6.802 4.016-13.798zm-43.792-7.904l-2.235 7.45q3.53-4.146 6.284-5.798 2.785-1.652 5.668-1.652t4.923 2.3q2.041 2.267 2.041 5.928 0 7.126-5.798 14.51-5.798 7.354-13.507 7.354-1.62 0-2.883-.357-1.23-.356-2.785-1.263l-2.365 8.357q-.713 2.462-.713 3.207 0 .712.357 1.198.388.518 1.23.777.843.292 3.337.292l-.292 1.198h-15.256l.324-1.198q3.012-.13 4.081-1.037 1.037-.906 2.203-5.02l8.195-28.375q.745-2.688.745-3.336 0-.875-.518-1.36-.486-.486-1.523-.486-.94 0-2.624.226v-1.263l11.11-1.652zm-7.547 25.913q2.008 2.397 5.409 2.397 1.684 0 3.433-.94 1.75-.939 3.401-2.785 1.685-1.846 3.013-4.243 1.328-2.43 2.364-5.701 1.07-3.272 1.07-6.478 0-2.592-1.2-3.952-1.165-1.393-2.752-1.393-3.499 0-6.932 4.017-3.401 4.016-4.988 9.393l-2.818 9.685zM155.603 304.6q1.102 1.879 1.523 3.53.42 1.62.842 6.414l1.425 15.937q1.944-2.332 5.636-7.385 1.782-2.462 4.405-6.705 1.587-2.592 1.944-3.628.194-.518.194-1.07 0-.355-.227-.582-.226-.227-1.198-.518-.94-.324-1.587-1.134-.616-.842-.616-1.911 0-1.328.778-2.138.777-.81 1.943-.81 1.425 0 2.43 1.199 1.004 1.166 1.004 3.239 0 2.559-1.75 5.863-1.749 3.271-6.737 10.073-4.988 6.802-12.082 14.835-4.89 5.54-7.255 6.964-2.365 1.458-4.05 1.458-1.003 0-1.748-.777-.778-.745-.778-1.75 0-1.263 1.07-2.3 1.036-1.036 2.267-1.036.647 0 1.068.292.26.162.583.907.292.777.551 1.036.162.162.389.162.194 0 .68-.324 1.782-1.101 4.146-3.498 3.11-3.174 4.6-5.183l-1.814-20.536q-.454-5.085-1.36-6.186-.908-1.102-3.045-1.102-.68 0-2.43.195l-.291-1.199 9.49-2.332zm-24.293-16.746l-9.102 31.452q5.895-8.875 9.2-11.79 3.303-2.916 6.315-2.916 1.555 0 2.592 1.07 1.036 1.068 1.036 2.85 0 2.137-.907 5.182l-3.951 13.572q-.745 2.462-.745 2.72 0 .454.259.746.291.291.647.291.422 0 .972-.42 1.847-1.426 3.66-3.952l1.005.615q-1.102 1.717-3.078 3.79-1.943 2.04-3.368 2.85-1.393.778-2.494.778-1.199 0-1.976-.778-.745-.745-.745-1.943 0-1.426 1.133-5.312l3.725-12.957q.713-2.43.713-3.822 0-.648-.421-1.037-.389-.388-1.037-.388-.939 0-2.137.712-2.203 1.36-5.086 5.053-.777 1.004-5.182 8.098-1.36 2.268-2.235 4.956l-2.073 6.64h-4.86l10.658-37.055 1.133-4.017q0-.842-.712-1.49-.68-.648-1.685-.648-.583 0-1.781.195l-.68.097v-1.263l11.207-1.879zm-29.022 59.73l-1.102.517q-3.854-7.352-5.539-12.988-1.295-4.406-1.295-8.876 0-10.43 4.826-18.69 5.928-10.105 19.208-19.693l.777 1.134q-5.992 4.437-9.782 9.944-4.729 6.867-7.741 16.584-3.013 9.717-3.013 17.686 0 6.09 3.66 14.381z" font-style="oblique" font-size="11.955" font-family="Times New Roman" fill="#00f"/></svg>